{"title":"Daniel.1983.BRRip.720p.x264.AAC-PRiSTiNE [P2PDL]","uid":13105757,"size":855348563,"categoryP":"video","categoryS":"hd___movies","magnet":"?xt=urn:btih:90fe28103d2a9db202ec1ef141a89b6a9d784da5&amp;dn=Daniel.1983.BRRip.720p.x264.AAC-PRiSTiNE+%5BP2PDL%5D&amp;tr=udp%3A%2F%2Ftracker.leechers-paradise.org%3A6969&amp;tr=udp%3A%2F%2Fzer0day.ch%3A1337&amp;tr=udp%3A%2F%2Fopen.demonii.com%3A1337&amp;tr=udp%3A%2F%2Ftracker.coppersurfer.tk%3A6969&amp;tr=udp%3A%2F%2Fexodus.desync.com%3A6969","seeders":1,"leechers":0,"uploader":"VYTOP2PDL","files":6,"time":1451288122,"description":"____    ____ ____    ____ .___________.  ______   \r\n     /   /      /   / |           | /  __    \r\n    /   /      /   /  `---|  |----`|  |  |  | \r\n        /     _    _/       |  |     |  |  |  | \r\n       /        |  |         |  |     |  `--'  | \r\n    __/         |__|         |__|      ______/  \r\n                                                  \r\nPresenting Small Encodes with quality for years!\r\n                                                                                                   \r\n                                                                                                   \r\n\r\nDaniel.1983.BRRip.720p.x264.AAC-PRiSTiNE\r\n\r\n\r\nGenre: Drama \nhttp://www.imdb.com/title/tt0085398/\r\n\r\n\r\nFormat                                   : MPEG-4\r\nFile size                                : 802 MiB\r\nDuration                                 : 2h 9mn\r\nOverall bit rate                         : 863 Kbps\r\n\r\nVideo\r\nFormat                                   : AVC\r\nBit rate                                 : 780 Kbps\r\nWidth                                    : 1 280 pixels\r\nHeight                                   : 720 pixels\r\nDisplay aspect ratio                     : 16:9\r\nFrame rate mode                          : Constant\r\nFrame rate                               : 23.976 fps\r\nBit depth                                : 8 bits\r\nStream size                              : 725 MiB (90%)\r\nWriting library                          : x264\r\n\r\nAudio\r\nFormat                                   : AAC\r\nBit rate mode                            : Variable\r\nBit rate                                 : 79.8 Kbps\r\nChannel(s)                               : 2 channels\r\nChannel positions                        : Front: L R\r\nSampling rate                            : 48.0 KHz \r\nFrame rate                               : 23.438 fps\r\nStream size                              : 74.2 MiB (9%)\r\nLanguage                                 : English\r\n\r\nSubtitle                                 : N/a\r\n\r\nScreen shots: (Click to view)\r\n \nhttp://ititli.com/3I \nhttp://ititli.com/3O \nhttp://ititli.com/E9 \nhttp://ititli.com/EX \nhttp://ititli.com/Eq \nhttp://ititli.com/Er \nhttp://ititli.com/E1 \nhttp://ititli.com/ET \nhttp://ititli.com/EW\r\n\r\n----------------------------------------------------------------------------------------------------\r\n\r\n\r\nEncoder Notes: Looking For Early Access To Anything You Can Provide WEBDL, DVDScr, DVDR, BluRay,\r\nDirect Audio, Music Releases and Seedboxes. If You Got anything to offer please contact us.\r\n\r\nSupport us by donating BC - 1FgwdzPsd1y25Gea8wP1qni35uGCtmkRCD\r\n\r\nSend some love!\r\nFind us and join us!","torrent":{"xt":"urn:btih:90fe28103d2a9db202ec1ef141a89b6a9d784da5","amp;dn":"Daniel.1983.BRRip.720p.x264.AAC-PRiSTiNE+%5BP2PDL%5D","amp;tr":["udp%3A%2F%2Ftracker.leechers-paradise.org%3A6969","udp%3A%2F%2Fzer0day.ch%3A1337","udp%3A%2F%2Fopen.demonii.com%3A1337","udp%3A%2F%2Ftracker.coppersurfer.tk%3A6969","udp%3A%2F%2Fexodus.desync.com%3A6969"],"infoHash":"90fe28103d2a9db202ec1ef141a89b6a9d784da5","infoHashBuffer":{"type":"Buffer","data":[144,254,40,16,61,42,157,178,2,236,30,241,65,168,155,106,157,120,77,165]},"announce":[],"urlList":[]}}